<?xml version="1.0" standalone="no"?>
<!DOCTYPE svg PUBLIC "-//W3C//DTD SVG 20010904//EN"
 "http://www.w3.org/TR/2001/REC-SVG-20010904/DTD/svg10.dtd">
<svg version="1.0" xmlns="http://www.w3.org/2000/svg"
 width="1090.000000pt" height="1090.000000pt" viewBox="0 0 1090.000000 1090.000000"
 preserveAspectRatio="xMidYMid meet">
<metadata>
Created by potrace 1.14, written by Peter Selinger 2001-2017
</metadata>
<g transform="translate(0.000000,1090.000000) scale(0.100000,-0.100000)"
fill="#000000" stroke="none">
<path d="M5906 10583 c-2 -2 -16 -6 -32 -8 -45 -8 -86 -14 -129 -21 -22 -4
-49 -8 -60 -9 -11 -1 -27 -4 -35 -7 -8 -3 -42 -11 -75 -18 -67 -13 -135 -33
-212 -60 -28 -10 -54 -16 -57 -13 -3 4 -6 2 -6 -4 0 -10 -20 -19 -59 -28 -7
-2 -23 -12 -35 -23 -11 -11 -27 -17 -33 -15 -7 3 -13 0 -13 -6 0 -6 -3 -10 -7
-9 -5 1 -18 -3 -29 -10 -12 -6 -24 -8 -28 -4 -4 3 -4 -2 0 -12 5 -13 4 -17 -4
-12 -6 3 -13 2 -17 -4 -4 -6 -10 -8 -15 -5 -5 3 -11 -4 -15 -15 -3 -11 -12
-20 -19 -20 -8 0 -19 -7 -26 -15 -7 -9 -19 -14 -26 -11 -7 3 -15 -2 -18 -10
-3 -9 -11 -12 -17 -8 -7 4 -10 3 -7 -2 6 -9 -17 -37 -26 -32 -3 2 -23 -16 -45
-39 -22 -24 -37 -43 -35 -43 2 0 -14 -23 -36 -52 -23 -28 -50 -69 -61 -90 -11
-21 -24 -38 -29 -38 -6 0 -9 -3 -8 -7 5 -18 -24 -83 -34 -77 -7 4 -8 2 -4 -5
4 -6 1 -23 -8 -36 -9 -14 -19 -57 -22 -97 -3 -40 -7 -78 -9 -84 -4 -13 -91
-74 -106 -74 -5 0 -9 -5 -9 -11 0 -5 -4 -7 -10 -4 -5 3 -10 1 -10 -5 0 -7 -7
-9 -17 -6 -10 4 -14 4 -11 0 7 -6 -33 -44 -46 -44 -9 0 -70 -43 -74 -53 -2 -4
-8 -5 -13 -1 -5 3 -9 0 -9 -6 0 -7 -7 -9 -16 -6 -8 3 -12 2 -9 -4 3 -6 -1 -10
-10 -10 -9 0 -13 -5 -10 -10 4 -6 3 -10 -2 -9 -21 4 -44 -2 -39 -10 3 -5 -4
-11 -15 -14 -12 -3 -18 -10 -14 -16 3 -6 0 -9 -8 -6 -7 3 -25 -5 -40 -19 -15
-14 -27 -22 -27 -19 0 3 -11 -6 -25 -21 -13 -14 -30 -25 -37 -24 -7 2 -12 -2
-13 -8 0 -11 -30 -44 -39 -44 -9 0 -223 -217 -296 -300 -36 -40 -72 -81 -80
-89 -8 -9 -37 -49 -64 -89 -26 -39 -52 -72 -57 -72 -5 0 -8 -4 -7 -9 2 -5 -9
-23 -24 -40 -16 -17 -28 -35 -28 -40 0 -5 -3 -11 -7 -13 -11 -4 -45 -54 -74
-108 -13 -25 -26 -47 -29 -50 -3 -3 -14 -24 -24 -47 -11 -24 -22 -43 -26 -43
-5 0 -11 -12 -15 -27 -3 -15 -14 -38 -24 -52 -16 -24 -45 -83 -99 -201 -11
-25 -36 -80 -56 -123 -20 -43 -36 -85 -36 -93 0 -8 -7 -14 -16 -14 -8 0 -12
-4 -9 -10 3 -5 -3 -27 -15 -49 -11 -22 -20 -49 -20 -61 0 -11 -4 -20 -8 -20
-4 0 -8 -8 -8 -17 -1 -10 -4 -31 -8 -48 -4 -16 -10 -43 -13 -60 -3 -16 -10
-33 -15 -36 -6 -4 -5 -9 3 -12 11 -4 11 -6 1 -6 -7 -1 -10 -5 -7 -11 3 -6 3
-16 -2 -22 -4 -7 -8 -23 -9 -35 0 -12 -6 -29 -13 -37 -9 -11 -9 -16 0 -21 8
-6 7 -10 -5 -17 -14 -8 -15 -13 -5 -24 9 -11 9 -14 0 -14 -7 0 -9 -5 -6 -10 4
-6 1 -18 -7 -27 -11 -14 -11 -16 2 -8 12 7 13 6 5 -6 -6 -8 -10 -26 -9 -41 0
-15 -2 -25 -6 -23 -5 3 -10 -2 -14 -10 -3 -8 -1 -17 5 -21 6 -4 7 -10 1 -17
-6 -7 -12 -28 -15 -48 -2 -20 -7 -41 -11 -47 -3 -6 0 -13 6 -15 10 -4 10 -6 1
-6 -7 -1 -10 -8 -7 -16 4 -9 0 -15 -7 -15 -11 0 -11 -3 1 -10 12 -8 12 -10 1
-10 -8 0 -11 -3 -8 -6 3 -4 2 -16 -4 -27 -9 -15 -8 -18 2 -12 9 6 10 4 3 -6
-5 -8 -10 -25 -10 -39 -1 -14 -3 -25 -4 -25 -2 0 -3 -14 -4 -30 -1 -17 -6 -37
-11 -44 -6 -10 -4 -12 6 -6 11 7 12 6 2 -6 -6 -8 -13 -37 -15 -64 -2 -28 -6
-54 -9 -60 -10 -17 -7 -229 3 -249 8 -14 7 -17 -3 -11 -8 6 -10 4 -4 -4 8 -14
13 -55 17 -148 2 -35 7 -63 12 -63 5 0 3 -7 -4 -15 -7 -8 -9 -15 -4 -15 5 0
10 -12 11 -27 6 -70 11 -99 18 -116 4 -9 5 -29 3 -42 -3 -14 -2 -25 2 -25 4 0
7 -12 8 -27 0 -16 7 -62 16 -103 19 -97 26 -135 32 -190 3 -24 9 -49 13 -55 5
-5 11 -26 14 -45 2 -19 7 -44 11 -55 3 -11 14 -54 25 -95 10 -41 26 -93 35
-116 13 -31 14 -47 6 -68 -6 -17 -6 -25 0 -21 14 8 13 1 -6 -43 -8 -20 -15
-37 -14 -37 3 0 -13 -41 -26 -70 -7 -16 -30 -73 -50 -125 -43 -113 -91 -228
-105 -253 -5 -10 -7 -22 -4 -27 4 -6 1 -10 -5 -10 -7 0 -9 -7 -6 -16 3 -8 2
-13 -2 -10 -7 4 -10 -20 -14 -114 0 -19 9 -56 21 -82 11 -26 21 -49 21 -51 0
-3 -35 -5 -78 -6 -43 -1 -93 -6 -110 -11 -18 -5 -32 -7 -32 -5 0 3 -40 -16
-88 -40 -61 -31 -103 -60 -133 -93 -47 -52 -89 -107 -89 -118 0 -3 -8 -18 -18
-32 -85 -123 -110 -352 -55 -495 27 -70 104 -164 124 -151 5 3 9 0 9 -5 0 -6
7 -11 15 -11 8 0 40 -14 71 -31 93 -53 182 -40 239 35 28 37 68 153 60 174 -3
7 -1 11 4 8 8 -5 27 58 23 77 -1 4 2 7 8 7 5 0 10 5 10 10 0 32 131 147 186
164 20 6 21 4 13 -41 -18 -116 -35 -167 -65 -200 -23 -25 -54 -99 -57 -138 -2
-22 2 -54 9 -71 13 -31 102 -114 123 -114 6 0 11 -3 11 -8 0 -8 76 -57 89 -57
5 0 13 -3 17 -7 4 -5 36 -8 71 -8 88 0 192 48 262 120 28 29 49 56 46 60 -3 5
-2 10 2 12 20 8 54 93 65 161 9 60 9 91 -1 147 -15 82 -83 229 -129 278 l-32
34 24 55 c23 54 24 55 68 58 28 1 45 -2 46 -9 8 -72 14 -115 17 -132 5 -23 37
-39 98 -49 34 -5 36 -8 26 -27 -7 -13 -10 -70 -9 -152 1 -72 2 -153 2 -181 -1
-75 5 -95 25 -88 14 6 15 -1 10 -53 -3 -32 -9 -70 -12 -84 -17 -65 -21 -118
-19 -280 1 -96 3 -314 4 -485 2 -170 7 -315 12 -322 5 -6 5 -14 1 -16 -5 -3
-8 -54 -6 -114 1 -59 3 -141 3 -180 -1 -40 -1 -79 -1 -85 0 -7 2 -102 4 -210
2 -136 0 -195 -7 -190 -7 4 -7 1 0 -9 7 -9 12 -100 13 -264 7 -836 3 -784 66
-786 17 0 38 -2 47 -4 10 -2 59 -6 110 -9 51 -3 104 -8 118 -10 14 -3 69 -7
122 -11 54 -4 110 -8 125 -10 16 -2 69 -6 118 -10 50 -4 106 -8 125 -10 19 -2
73 -6 120 -10 47 -3 103 -8 125 -10 63 -6 185 -17 240 -21 28 -2 77 -6 110 -9
33 -3 92 -8 130 -10 39 -2 70 -5 70 -5 0 -1 16 -3 35 -5 55 -4 190 -16 240
-20 25 -3 77 -7 115 -10 94 -7 170 -13 225 -19 25 -3 81 -8 125 -11 44 -3 100
-8 125 -10 25 -2 79 -7 120 -10 41 -3 95 -8 120 -10 25 -2 81 -7 125 -10 44
-3 96 -8 116 -11 33 -4 50 6 225 133 104 75 245 175 314 222 126 85 153 105
224 164 22 17 52 40 68 49 15 10 28 23 28 30 0 6 3 9 6 6 7 -7 254 177 269
201 13 19 13 60 1 80 -7 10 -5 12 4 6 9 -5 11 -4 6 3 -4 7 -9 22 -11 34 -12
64 -30 118 -39 118 -5 0 -7 3 -3 6 3 3 -15 65 -40 137 -25 73 -46 139 -47 147
0 8 -4 17 -8 20 -4 3 -9 15 -11 25 -2 11 -8 31 -14 45 -6 14 -19 45 -28 70
-10 25 -23 58 -30 74 -7 16 -12 38 -10 48 2 10 1 16 -4 14 -4 -3 -13 12 -20
32 -16 48 -44 105 -54 113 -5 3 -8 9 -7 13 3 11 -43 121 -54 128 -6 4 -8 8 -4
8 5 0 -1 24 -13 53 -51 132 -138 407 -144 457 -3 30 -8 239 -10 463 -2 225 -6
412 -9 415 -10 9 85 42 121 42 43 0 56 -26 49 -99 -6 -62 -20 -106 -60 -191
-46 -99 -31 -163 62 -256 35 -36 67 -62 73 -59 5 4 9 2 9 -4 0 -30 207 7 251
45 8 8 20 14 26 14 18 0 79 91 97 144 33 97 28 246 -12 361 -9 28 -21 53 -25
56 -5 3 -8 8 -7 10 9 23 -98 168 -113 153 -14 -14 7 67 30 115 14 31 27 58 28
61 1 3 11 25 23 50 12 25 22 50 22 56 0 7 7 15 16 18 10 4 14 14 11 26 -3 11
0 20 6 21 7 0 3 4 -8 9 -17 7 -17 9 -2 9 19 1 23 16 7 26 -6 4 -7 12 -3 18 4
7 8 41 9 77 4 99 16 200 29 238 3 7 0 10 -5 7 -6 -3 -10 -1 -10 4 0 6 5 11 11
11 6 0 8 7 5 16 -3 8 -2 13 3 10 5 -3 9 6 10 19 1 14 3 36 4 50 1 14 5 25 9
25 5 0 7 3 6 8 -1 4 1 27 5 52 18 124 26 266 16 282 -5 7 -3 18 2 24 9 11 18
41 22 74 1 8 8 21 15 29 7 7 11 20 8 28 -3 8 -2 12 3 9 5 -3 12 1 15 10 3 8 2
12 -4 9 -5 -3 -3 7 5 22 8 15 15 36 15 46 0 10 5 28 12 40 7 12 13 36 14 52 3
45 3 47 13 41 4 -3 7 8 5 24 -2 17 1 30 6 30 5 0 6 7 3 17 -5 12 -3 14 7 8 9
-6 11 -4 5 5 -4 7 -2 16 6 21 9 5 10 9 2 9 -15 0 -10 29 8 41 9 6 10 9 2 9 -7
0 -10 7 -7 15 4 8 11 12 18 8 6 -4 6 -1 -2 9 -10 13 -10 17 3 22 13 4 14 10 5
26 -8 16 -8 22 3 26 8 3 13 17 12 35 -1 16 2 32 6 35 5 2 6 11 2 19 -3 8 -1
15 5 15 5 0 8 14 6 30 -2 17 1 30 7 30 8 0 7 5 -1 15 -7 8 -8 15 -3 15 13 0
12 30 -1 30 -6 0 -3 5 7 11 9 6 14 15 10 22 -12 20 -9 56 5 62 11 4 12 8 2 20
-6 8 -9 18 -6 23 2 4 7 33 10 64 3 30 8 71 11 89 10 67 15 137 21 339 3 112 8
208 10 212 2 3 0 9 -6 13 -5 3 -10 11 -10 16 0 6 4 7 10 4 6 -4 7 2 1 17 -6
15 -5 31 1 42 8 14 7 17 -1 12 -14 -9 -14 0 0 26 8 15 8 19 0 14 -15 -10 -14
7 1 22 9 9 9 12 0 12 -7 0 -12 5 -12 11 0 5 6 7 13 3 9 -5 9 -4 0 6 -8 9 -9
19 -3 31 7 12 6 20 0 24 -8 5 -7 12 2 23 7 9 8 13 2 9 -7 -4 -11 10 -10 44 1
28 -2 53 -6 55 -5 3 -5 10 -2 16 4 6 0 14 -7 19 -12 7 -12 9 0 9 10 0 10 5 -3
25 -11 16 -12 25 -5 25 8 0 8 4 -1 14 -6 8 -14 34 -17 58 -2 23 -10 49 -16 57
-10 12 -9 13 3 6 12 -7 13 -6 3 6 -7 8 -14 32 -16 52 -2 20 -7 40 -10 44 -12
11 -8 24 6 18 6 -4 2 2 -11 13 -15 14 -18 22 -10 25 9 4 9 8 3 14 -5 4 -11 15
-11 23 -1 8 -5 24 -10 34 -5 14 -4 17 5 11 8 -4 6 3 -4 18 -9 15 -14 31 -10
37 3 5 0 10 -7 10 -10 0 -10 2 1 9 9 6 9 10 2 12 -13 5 -44 117 -35 130 3 5 0
9 -6 9 -6 0 -8 5 -5 10 3 6 1 10 -4 10 -6 0 -11 9 -11 20 0 18 -10 47 -32 95
-5 12 -10 27 -12 35 -3 16 -13 43 -26 75 -5 11 -22 54 -38 95 -30 77 -89 193
-180 354 -10 16 -74 110 -144 209 -71 98 -128 182 -128 187 0 5 -4 10 -8 12
-4 2 -23 23 -42 48 -19 24 -39 50 -45 56 -5 6 -30 35 -54 63 -24 29 -58 67
-76 86 -18 18 -30 36 -27 40 4 4 2 5 -3 3 -15 -4 -75 53 -68 65 3 6 2 7 -4 4
-12 -8 -79 50 -75 65 1 5 -1 7 -6 4 -5 -3 -19 5 -33 17 -13 13 -41 35 -61 51
-39 29 -47 49 -26 62 7 4 8 3 4 -4 -4 -7 -2 -12 3 -12 6 0 11 5 11 11 0 6 9 8
20 4 13 -4 20 -2 20 7 0 8 3 9 8 3 4 -5 23 -12 42 -13 19 -2 41 -9 49 -15 12
-10 13 -9 6 2 -6 11 -5 12 6 5 8 -4 23 -10 33 -11 11 -2 25 -8 32 -14 8 -7 14
-7 19 1 3 5 11 10 16 10 6 0 7 -5 3 -11 -4 -8 0 -8 15 0 12 7 21 8 21 2 0 -5
10 -7 22 -3 16 4 19 2 13 -9 -6 -11 -5 -11 5 -2 8 7 22 8 41 3 16 -5 29 -6 29
-3 0 3 8 -1 17 -8 15 -12 16 -12 8 1 -7 12 -6 13 6 4 8 -6 21 -12 29 -12 33
-3 105 -11 105 -12 0 -1 9 -3 19 -5 10 -2 22 -9 26 -15 6 -9 9 -9 12 1 4 12 8
11 23 -1 15 -12 17 -12 10 -1 -6 11 -5 12 6 5 8 -4 19 -9 24 -10 29 -5 41 -10
47 -19 5 -6 8 -5 8 3 0 9 5 10 19 2 11 -5 34 -10 50 -10 17 0 39 -4 49 -9 20
-11 68 -24 97 -26 11 0 19 -6 17 -13 -1 -9 2 -10 17 -1 17 11 17 14 2 32 -27
34 -112 117 -231 227 -63 58 -129 120 -148 138 -19 17 -37 32 -41 32 -3 0 -14
8 -23 18 -24 25 -48 44 -48 37 0 -3 -12 5 -27 19 -15 14 -30 23 -35 20 -4 -3
-8 2 -8 11 0 9 -4 14 -8 11 -5 -3 -19 5 -33 17 -13 12 -36 28 -51 36 -15 8
-37 22 -47 33 -11 10 -24 18 -28 18 -5 0 -25 11 -46 25 -20 14 -37 23 -37 19
0 -3 -6 -2 -12 4 -20 16 -135 78 -218 118 -81 39 -194 78 -222 76 -10 0 -18 3
-18 6 0 4 -14 9 -32 10 -17 2 -38 8 -47 15 -12 10 -13 9 -6 -2 6 -11 5 -12 -6
-5 -8 4 -23 10 -33 11 -11 2 -26 9 -35 16 -12 10 -13 9 -6 -2 6 -11 4 -13 -10
-7 -23 8 -82 19 -112 20 -13 0 -23 4 -23 8 0 11 -23 6 -32 -7 -5 -6 -8 -6 -8
2 0 15 -186 16 -214 1 -14 -8 -17 -7 -11 3 5 8 4 10 -4 5 -13 -8 -31 -12 -111
-20 -30 -4 -83 -11 -118 -17 -35 -5 -67 -7 -73 -4 -5 4 -9 2 -9 -4 0 -5 -15
-13 -32 -16 -18 -4 -44 -12 -58 -18 -14 -5 -34 -12 -44 -14 -11 -2 -25 -8 -33
-14 -7 -6 -13 -8 -13 -4 0 4 -6 2 -14 -5 -13 -10 -13 -8 -3 13 6 14 15 23 19
21 5 -3 8 1 8 8 0 7 32 47 70 88 38 41 67 81 65 88 -3 7 -1 11 4 7 12 -7 43
24 35 36 -3 5 -1 8 4 7 20 -6 287 282 287 310 0 15 -11 17 -83 18 -45 0 -84
-1 -86 -3z m-2786 -5186 c-29 -88 -43 -104 -34 -42 4 28 13 75 21 105 8 30 18
71 21 90 6 30 7 26 10 -28 2 -45 -3 -83 -18 -125z m4600 -1797 c13 -8 13 -10
-2 -10 -9 0 -20 5 -23 10 -8 13 5 13 25 0z m-343 -537 c-3 -10 -5 -2 -5 17 0
19 2 27 5 18 2 -10 2 -26 0 -35z"/>
<path d="M5180 10389 c0 -5 5 -7 10 -4 6 3 10 8 10 11 0 2 -4 4 -10 4 -5 0
-10 -5 -10 -11z"/>
<path d="M4995 10289 c-4 -6 -5 -12 -2 -15 2 -3 7 2 10 11 7 17 1 20 -8 4z"/>
</g>
</svg>
